<svg width="716" height="90" viewBox="0 0 716 90" fill="none" xmlns="http://www.w3.org/2000/svg">
<path d="M35.4184 69.8189C16.178 69.8189 0 54.1534 0 34.9096C0 15.6673 16.178 0 35.4184 0C46.0645 0 53.6409 4.17262 59.3463 9.6221L52.6184 16.3477C48.5309 12.5164 42.9982 9.53705 35.4184 9.53705C21.3712 9.53705 10.386 20.8616 10.386 34.9096C10.386 48.9587 21.3712 60.2837 35.4184 60.2837C44.5298 60.2837 49.7227 56.6217 53.0448 53.3011C55.7679 50.5765 57.5587 46.6602 58.2376 41.2957H35.4184V31.7606H67.5188C67.8616 33.463 68.0313 35.5072 68.0313 37.7207C68.0313 44.8727 66.0704 53.7274 59.7723 60.0289C53.6409 66.4135 45.8082 69.8189 35.4184 69.8189Z" fill="#F0F4F8"/>
<path d="M107.98 47.341C107.98 39.2517 102.211 33.7179 95.5243 33.7179C88.8372 33.7179 83.0684 39.2517 83.0684 47.341C83.0684 55.3453 88.8372 60.9641 95.5243 60.9641C102.211 60.9641 107.98 55.3453 107.98 47.341ZM117.678 47.341C117.678 60.2834 107.728 69.8189 95.5243 69.8189C83.3202 69.8189 73.3709 60.2834 73.3709 47.341C73.3709 34.3136 83.3202 24.8631 95.5243 24.8631C107.728 24.8631 117.678 34.3136 117.678 47.341Z" fill="#F0F4F8"/>
<path d="M157.645 47.341C157.645 39.2517 151.877 33.7179 145.186 33.7179C138.5 33.7179 132.731 39.2517 132.731 47.341C132.731 55.3453 138.5 60.9641 145.186 60.9641C151.877 60.9641 157.645 55.3453 157.645 47.341ZM167.342 47.341C167.342 60.2834 157.393 69.8189 145.186 69.8189C132.983 69.8189 123.035 60.2834 123.035 47.341C123.035 34.3136 132.983 24.8631 145.186 24.8631C157.393 24.8631 167.342 34.3136 167.342 47.341Z" fill="#F0F4F8"/>
<path d="M207.08 47.4259C207.08 39.5082 201.8 33.7177 195.076 33.7177C188.265 33.7177 182.56 39.5082 182.56 47.4259C182.56 55.2601 188.265 60.964 195.076 60.964C201.8 60.964 207.08 55.2601 207.08 47.4259ZM215.765 26.2245V66.5851C215.765 83.1875 205.975 90 194.393 90C183.495 90 176.94 82.6765 174.471 76.716L183.069 73.1413C184.603 76.801 188.348 81.1437 194.393 81.1437C201.8 81.1437 206.401 76.5462 206.401 67.9466V64.711H206.058C203.844 67.4355 199.587 69.8188 194.224 69.8188C182.986 69.8188 172.683 60.0288 172.683 47.4259C172.683 34.7398 182.986 24.8629 194.224 24.8629C199.587 24.8629 203.844 27.2466 206.058 29.8864H206.401V26.2245H215.765Z" fill="#F0F4F8"/>
<path d="M233.072 68.4575H223.196V2.3853H233.072V68.4575Z" fill="#F0F4F8"/>
<path d="M248.316 46.6602L268.412 38.3164C267.303 35.5072 263.985 33.5481 260.067 33.5481C255.044 33.5481 248.063 37.9751 248.316 46.6602ZM271.901 54.7495L279.564 59.8573C277.097 63.5189 271.135 69.8189 260.833 69.8189C248.063 69.8189 238.84 59.942 238.84 47.3409C238.84 33.9741 248.146 24.863 259.727 24.863C271.391 24.863 277.097 34.1438 278.968 39.1669L279.99 41.7217L249.934 54.1534C252.234 58.6659 255.809 60.9641 260.833 60.9641C265.856 60.9641 269.348 58.4958 271.901 54.7495Z" fill="#F0F4F8"/>
<path d="M312.466 60.8766H323.409C330.532 60.8766 336.177 58.8391 340.34 54.7597C344.507 50.6841 346.589 44.9661 346.589 37.6127C346.589 30.3212 344.507 24.6177 340.34 20.5093C336.177 16.4045 330.532 14.3484 323.409 14.3484H312.466V60.8766ZM304.539 68.4605V6.76827H323.409C332.888 6.76827 340.472 9.62524 346.157 15.3399C351.846 21.058 354.688 28.4811 354.688 37.6127C354.688 46.7476 351.846 54.1707 346.157 59.8888C340.472 65.6035 332.888 68.4605 323.409 68.4605H304.539Z" fill="#F0F4F8"/>
<path d="M393.11 42.2661C392.934 39.8552 391.829 37.5574 389.791 35.3734C387.75 33.1931 384.721 32.0994 380.7 32.0994C377.77 32.0994 375.231 33.0178 373.076 34.8579C370.921 36.6943 369.439 39.1637 368.638 42.2661H393.11ZM381.736 69.8399C375.359 69.8399 370.175 67.7144 366.183 63.4634C362.188 59.2121 360.195 53.8413 360.195 47.3515C360.195 41.2052 362.134 35.9188 366.008 31.4955C369.886 27.0725 374.843 24.8628 380.872 24.8628C387.132 24.8628 392.144 26.9006 395.908 30.9799C399.669 35.0589 401.554 40.5136 401.554 47.3515L401.466 48.8149H368.119C368.349 53.0658 369.772 56.4279 372.384 58.8973C375 61.367 378.059 62.5995 381.564 62.5995C387.249 62.5995 391.097 60.1887 393.11 55.3633L400.174 58.2937C398.795 61.5681 396.527 64.312 393.366 66.5218C390.208 68.7316 386.331 69.8399 381.736 69.8399Z" fill="#F0F4F8"/>
<path d="M419.388 68.4605L402.325 26.2419H410.944L423.35 58.9816H423.522L436.104 26.2419H444.547L427.316 68.4605H419.388Z" fill="#F0F4F8"/>
<path d="M478.106 42.2661C477.934 39.8552 476.826 37.5574 474.788 35.3734C472.75 33.1931 469.718 32.0994 465.701 32.0994C462.77 32.0994 460.227 33.0178 458.073 34.8579C455.918 36.6943 454.44 39.1637 453.635 42.2661H478.106ZM466.733 69.8399C460.356 69.8399 455.172 67.7144 451.18 63.4634C447.189 59.2121 445.192 53.8413 445.192 47.3515C445.192 41.2052 447.13 35.9188 451.008 31.4955C454.886 27.0725 459.84 24.8628 465.873 24.8628C472.132 24.8628 477.144 26.9006 480.909 30.9799C484.67 35.0589 486.55 40.5136 486.55 47.3515L486.466 48.8149H453.119C453.35 53.0658 454.769 56.4279 457.385 58.8973C459.997 61.367 463.056 62.5995 466.561 62.5995C472.25 62.5995 476.094 60.1887 478.106 55.3633L485.171 58.2937C483.795 61.5681 481.524 64.312 478.366 66.5218C475.205 68.7316 471.327 69.8399 466.733 69.8399Z" fill="#F0F4F8"/>
<path d="M501.213 68.4605H493.289V6.76831H501.213V68.4605Z" fill="#F0F4F8"/>
<path d="M520.069 58.4218C522.795 61.2094 526.025 62.5997 529.76 62.5997C533.495 62.5997 536.726 61.2094 539.455 58.4218C542.18 55.6376 543.549 51.9466 543.549 47.3513C543.549 42.7564 542.18 39.065 539.455 36.277C536.726 33.4932 533.495 32.0992 529.76 32.0992C526.025 32.0992 522.795 33.4932 520.069 36.277C517.34 39.065 515.975 42.7564 515.975 47.3513C515.975 51.9466 517.34 55.6376 520.069 58.4218ZM514.164 31.2797C518.243 27.003 523.442 24.8629 529.76 24.8629C536.078 24.8629 541.277 27.003 545.356 31.2797C549.436 35.5601 551.473 40.9159 551.473 47.3513C551.473 53.7829 549.436 59.1425 545.356 63.4192C541.277 67.6996 536.078 69.84 529.76 69.84C523.442 69.84 518.243 67.6996 514.164 63.4192C510.085 59.1425 508.047 53.7829 508.047 47.3513C508.047 40.9159 510.085 35.5601 514.164 31.2797Z" fill="#F0F4F8"/>
<path d="M579.065 62.5996C582.738 62.5996 585.899 61.2093 588.54 58.4217C591.182 55.6375 592.506 51.9464 592.506 47.3516C592.506 42.7563 591.182 39.0649 588.54 36.2773C585.899 33.4931 582.738 32.0991 579.065 32.0991C575.33 32.0991 572.155 33.4785 569.542 36.237C566.926 38.9918 565.624 42.6977 565.624 47.3516C565.624 52.005 566.926 55.7073 569.542 58.4658C572.155 61.2242 575.33 62.5996 579.065 62.5996ZM580.357 69.8399C577.137 69.8399 574.251 69.1483 571.697 67.7726C569.14 66.3936 567.23 64.6706 565.968 62.5996H565.624L565.968 68.4605V87.0713H558.04V26.2419H565.624V32.0991H565.968C567.23 30.0322 569.14 28.3092 571.697 26.9297C574.251 25.5507 577.137 24.8628 580.357 24.8628C585.811 24.8628 590.524 27.014 594.486 31.3236C598.452 35.6335 600.434 40.9748 600.434 47.3516C600.434 53.728 598.452 59.0693 594.486 63.3755C590.524 67.685 585.811 69.8399 580.357 69.8399Z" fill="#F0F4F8"/>
<path d="M637.897 42.2661C637.721 39.8552 636.616 37.5574 634.578 35.3734C632.537 33.1931 629.508 32.0994 625.487 32.0994C622.557 32.0994 620.018 33.0178 617.863 34.8579C615.708 36.6943 614.226 39.1637 613.425 42.2661H637.897ZM626.523 69.8399C620.146 69.8399 614.962 67.7144 610.97 63.4634C606.975 59.2121 604.981 53.8413 604.981 47.3515C604.981 41.2052 606.92 35.9188 610.795 31.4955C614.673 27.0725 619.63 24.8628 625.659 24.8628C631.919 24.8628 636.931 26.9006 640.695 30.9799C644.456 35.0589 646.34 40.5136 646.34 47.3515L646.252 48.8149H612.906C613.136 53.0658 614.559 56.4279 617.171 58.8973C619.787 61.367 622.845 62.5995 626.351 62.5995C632.036 62.5995 635.885 60.1887 637.897 55.3633L644.961 58.2937C643.582 61.5681 641.313 64.312 638.153 66.5218C634.996 68.7316 631.118 69.8399 626.523 69.8399Z" fill="#F0F4F8"/>
<path d="M660.901 68.4605H652.973V26.2419H660.557V33.1346H660.901C661.706 30.8371 663.356 28.9422 665.854 27.4456C668.353 25.9531 670.779 25.2067 673.135 25.2067C675.491 25.2067 677.474 25.5506 679.08 26.2419L676.065 33.6504C675.03 33.248 673.625 33.0469 671.843 33.0469C668.971 33.0469 666.429 34.1809 664.22 36.4492C662.006 38.7209 660.901 41.6917 660.901 45.3685V68.4605Z" fill="#F0F4F8"/>
<path d="M698.693 69.84C693.981 69.84 690.088 68.6911 687.015 66.3937C683.942 64.0962 681.688 61.2243 680.251 57.778L687.319 54.8475C689.558 60.134 693.377 62.7757 698.777 62.7757C701.247 62.7757 703.273 62.2304 704.854 61.1363C706.431 60.0463 707.221 58.6083 707.221 56.8268C707.221 54.072 705.296 52.2062 701.448 51.2292L692.92 49.1586C690.216 48.4707 687.663 47.1648 685.252 45.2403C682.837 43.3163 681.63 40.7148 681.63 37.4408C681.63 33.7091 683.28 30.6761 686.587 28.3529C689.887 26.026 693.809 24.8629 698.345 24.8629C702.081 24.8629 705.414 25.7115 708.34 27.4017C711.271 29.0993 713.367 31.5251 714.633 34.6857L707.74 37.5285C706.189 33.7931 702.97 31.9272 698.089 31.9272C695.733 31.9272 693.75 32.4177 692.144 33.3906C690.535 34.3712 689.73 35.6917 689.73 37.3565C689.73 39.7674 691.596 41.4064 695.331 42.2662L703.69 44.2492C707.653 45.1672 710.583 46.7477 712.478 48.9866C714.373 51.2292 715.32 53.7572 715.32 56.5705C715.32 60.3608 713.769 63.5218 710.667 66.0497C707.565 68.574 703.573 69.84 698.693 69.84Z" fill="#F0F4F8"/>
</svg>
