<svg width="224" height="34" viewBox="0 0 224 34" fill="none" xmlns="http://www.w3.org/2000/svg">
<path d="M52.7081 19.1063C51.9193 20.4713 50.4884 21.2339 49.0175 21.2339C48.295 21.2339 47.5631 21.0501 46.8925 20.663L31.943 12.0378C29.9069 10.8626 29.2093 8.2611 30.3845 6.22628C31.1733 4.86123 32.6042 4.09861 34.0755 4.09861C34.7976 4.09861 35.5295 4.28246 36.2001 4.66891L51.15 13.2948C53.1865 14.4694 53.8838 17.0714 52.7081 19.1063Z" fill="#F0F4F8"/>
<path d="M36.2001 29.2889C35.5295 29.6754 34.7976 29.8598 34.0755 29.8598C32.6042 29.8598 31.1733 29.0966 30.3845 27.7316C29.2093 25.6967 29.9069 23.0953 31.943 21.9201L39.3233 17.6624L46.3007 21.6877C46.8943 22.0305 47.5457 22.2544 48.2171 22.3551L36.2001 29.2889Z" fill="#F0F4F8"/>
<path d="M21.3363 12.0378L13.956 16.2961L6.9786 12.2701C6.38544 11.9273 5.73403 11.7035 5.06217 11.6027L17.0793 4.66891C19.1157 3.49438 21.7196 4.19145 22.8948 6.22628C24.07 8.2611 23.3724 10.8632 21.3363 12.0378Z" fill="#F0F4F8"/>
<path d="M22.8948 27.7316C22.106 29.0966 20.6751 29.8598 19.2038 29.8598C18.4817 29.8598 17.7498 29.6754 17.0793 29.2889L2.12926 20.663C0.0927669 19.4885 -0.604443 16.887 0.571209 14.8522C1.35913 13.4871 2.79045 12.7239 4.2618 12.7239C4.98435 12.7239 5.7158 12.9077 6.38678 13.2948L21.3363 21.9201C23.3724 23.0953 24.07 25.6967 22.8948 27.7316Z" fill="#F0F4F8"/>
<path d="M84.0343 17.6864C84.0343 20.4967 83.2006 22.7356 81.5331 24.4031C79.6596 26.3891 77.1959 27.382 74.142 27.382C71.2192 27.382 68.7461 26.3703 66.7227 24.3469C64.6992 22.3234 63.6875 19.8316 63.6875 16.8714C63.6875 13.9112 64.6992 11.4193 66.7227 9.39588C68.7461 7.37244 71.2192 6.36072 74.142 6.36072C75.6221 6.36072 77.0179 6.62302 78.3294 7.14761C79.6408 7.67221 80.7181 8.41226 81.5612 9.36778L79.7064 11.2226C79.0881 10.4732 78.2825 9.89238 77.2895 9.48019C76.3153 9.04927 75.2661 8.83381 74.142 8.83381C71.9499 8.83381 70.0951 9.59261 68.5775 11.1102C67.0786 12.6465 66.3292 14.5669 66.3292 16.8714C66.3292 19.1759 67.0786 21.0963 68.5775 22.6326C70.0951 24.1502 71.9499 24.9089 74.142 24.9089C76.1467 24.9089 77.8141 24.3469 79.1444 23.2227C80.4746 22.0986 81.2427 20.5529 81.4488 18.5857H74.142V16.1688H83.8938C83.9875 16.6934 84.0343 17.1993 84.0343 17.6864Z" fill="#F0F4F8"/>
<path d="M87.1758 26.9324V6.81037H93.3304C96.403 6.81037 98.8668 7.73778 100.722 9.59261C102.595 11.4474 103.532 13.8737 103.532 16.8714C103.532 19.8878 102.595 22.3234 100.722 24.1783C98.8668 26.0143 96.403 26.9324 93.3304 26.9324H87.1758ZM89.7613 9.28347V24.4593H93.3304C95.6724 24.4593 97.5178 23.7942 98.8668 22.464C100.216 21.115 100.89 19.2508 100.89 16.8714C100.89 14.5107 100.216 12.6559 98.8668 11.3069C97.5178 9.95795 95.6724 9.28347 93.3304 9.28347H89.7613Z" fill="#F0F4F8"/>
<path d="M125.97 17.6864C125.97 20.4967 125.136 22.7356 123.469 24.4031C121.595 26.3891 119.131 27.382 116.077 27.382C113.155 27.382 110.682 26.3703 108.658 24.3469C106.635 22.3234 105.623 19.8316 105.623 16.8714C105.623 13.9112 106.635 11.4193 108.658 9.39588C110.682 7.37244 113.155 6.36072 116.077 6.36072C117.558 6.36072 118.953 6.62302 120.265 7.14761C121.576 7.67221 122.654 8.41226 123.497 9.36778L121.642 11.2226C121.024 10.4732 120.218 9.89238 119.225 9.48019C118.251 9.04927 117.202 8.83381 116.077 8.83381C113.885 8.83381 112.031 9.59261 110.513 11.1102C109.014 12.6465 108.265 14.5669 108.265 16.8714C108.265 19.1759 109.014 21.0963 110.513 22.6326C112.031 24.1502 113.885 24.9089 116.077 24.9089C118.082 24.9089 119.75 24.3469 121.08 23.2227C122.41 22.0986 123.178 20.5529 123.384 18.5857H116.077V16.1688H125.829C125.923 16.6934 125.97 17.1993 125.97 17.6864Z" fill="#F0F4F8"/>
<path d="M141.735 27.382C139.506 27.382 137.707 26.6514 136.339 25.19C134.972 23.7473 134.288 21.8363 134.288 19.4569V6.81037H136.873V19.5693C136.873 21.218 137.304 22.5202 138.166 23.4757C139.028 24.4312 140.218 24.9089 141.735 24.9089C143.253 24.9089 144.442 24.4312 145.304 23.4757C146.166 22.5202 146.597 21.218 146.597 19.5693V6.81037H149.183V19.4569C149.183 21.8925 148.508 23.8223 147.159 25.2462C145.81 26.6701 144.002 27.382 141.735 27.382Z" fill="#F0F4F8"/>
<path d="M164.432 26.9324H161.312L157.012 20.4405L154.904 22.5202V26.9324H152.319V6.81037H154.904V19.204L160.862 13.1617H164.179V13.2741L158.811 18.6138L164.432 26.82V26.9324Z" fill="#F0F4F8"/>
<path d="M168.49 26.9324H165.904V13.1617H168.377V15.41H168.49C168.752 14.6793 169.286 14.061 170.091 13.5552C170.916 13.0306 171.721 12.7683 172.508 12.7683C173.258 12.7683 173.895 12.8807 174.419 13.1055L173.633 15.6067C173.314 15.4756 172.808 15.41 172.115 15.41C171.141 15.41 170.288 15.8035 169.558 16.5903C168.846 17.3772 168.49 18.2953 168.49 19.3445V26.9324Z" fill="#F0F4F8"/>
<path d="M177.448 22.7169C177.448 23.3914 177.729 23.9534 178.291 24.4031C178.871 24.8527 179.546 25.0776 180.314 25.0776C181.401 25.0776 182.366 24.6748 183.209 23.8691C184.071 23.0635 184.501 22.1173 184.501 21.0307C183.696 20.3937 182.572 20.0752 181.129 20.0752C180.08 20.0752 179.199 20.3281 178.487 20.834C177.794 21.3398 177.448 21.9675 177.448 22.7169ZM180.792 12.7121C182.703 12.7121 184.211 13.2273 185.316 14.2578C186.422 15.2695 186.975 16.6653 186.975 18.4452V26.9324H184.501V25.0214H184.389C183.321 26.5951 181.897 27.382 180.117 27.382C178.6 27.382 177.326 26.9324 176.295 26.0331C175.284 25.1338 174.778 24.0096 174.778 22.6607C174.778 21.2368 175.312 20.1033 176.38 19.2602C177.466 18.4171 178.909 17.9955 180.708 17.9955C182.244 17.9955 183.508 18.2765 184.501 18.8386V18.2484C184.501 17.3491 184.146 16.5903 183.434 15.9721C182.722 15.3351 181.888 15.0166 180.932 15.0166C179.49 15.0166 178.347 15.6255 177.504 16.8433L175.227 15.41C176.483 13.6114 178.337 12.7121 180.792 12.7121Z" fill="#F0F4F8"/>
<path d="M193.235 8.41226C193.235 8.91813 193.057 9.34904 192.701 9.70502C192.345 10.061 191.914 10.239 191.408 10.239C190.902 10.239 190.472 10.061 190.116 9.70502C189.76 9.34904 189.582 8.91813 189.582 8.41226C189.582 7.9064 189.76 7.47549 190.116 7.11951C190.472 6.76353 190.902 6.58555 191.408 6.58555C191.914 6.58555 192.345 6.76353 192.701 7.11951C193.057 7.47549 193.235 7.9064 193.235 8.41226ZM192.701 13.1617V26.9324H190.116V13.1617H192.701Z" fill="#F0F4F8"/>
<path d="M196.066 13.1617H198.539V15.0728H198.651C199.045 14.3983 199.644 13.8362 200.45 13.3866C201.274 12.9369 202.127 12.7121 203.007 12.7121C204.694 12.7121 205.986 13.1992 206.886 14.1735C207.804 15.129 208.263 16.4967 208.263 18.2765V26.9324H205.677V18.4452C205.621 16.1969 204.487 15.0728 202.277 15.0728C201.246 15.0728 200.384 15.4943 199.691 16.3374C198.998 17.1618 198.651 18.1548 198.651 19.3164V26.9324H196.066V13.1617Z" fill="#F0F4F8"/>
<path d="M217.48 27.382C215.457 27.382 213.789 26.6888 212.478 25.3024C211.166 23.916 210.511 22.1642 210.511 20.0471C210.511 17.9487 211.148 16.2063 212.422 14.8198C213.696 13.4147 215.326 12.7121 217.312 12.7121C219.354 12.7121 220.975 13.3772 222.174 14.7074C223.391 16.0189 224 17.8644 224 20.2438L223.972 20.5248H213.152C213.19 21.8738 213.64 22.9604 214.501 23.7848C215.363 24.6092 216.394 25.0214 217.593 25.0214C219.242 25.0214 220.534 24.197 221.471 22.5483L223.776 23.6724C223.157 24.834 222.295 25.7427 221.19 26.3984C220.103 27.0542 218.867 27.382 217.48 27.382ZM213.349 18.389H221.246C221.171 17.4334 220.778 16.6466 220.066 16.0283C219.373 15.3913 218.436 15.0728 217.256 15.0728C216.281 15.0728 215.438 15.3725 214.726 15.9721C214.033 16.5716 213.574 17.3772 213.349 18.389Z" fill="#F0F4F8"/>
</svg>
